<?xml version="1.0" standalone="no"?>
<!DOCTYPE svg PUBLIC "-//W3C//DTD SVG 20010904//EN"
 "http://www.w3.org/TR/2001/REC-SVG-20010904/DTD/svg10.dtd">
<svg version="1.0" xmlns="http://www.w3.org/2000/svg"
 width="533.000000pt" height="566.000000pt" viewBox="0 0 533.000000 566.000000"
 preserveAspectRatio="xMidYMid meet" fill="none">
    <metadata>
    Created by potrace 1.16, written by Peter Selinger 2001-2019
    </metadata>
    <g transform="translate(0.000000,566.000000) scale(0.100000,-0.100000)">
      <path d="M1870 3711 l0 -1909 -88 -113 c-48 -63 -215 -283 -372 -489 -156
      -206 -296 -390 -311 -409 -34 -42 -30 -49 49 -84 100 -45 177 -60 277 -54 146
      8 254 58 360 166 63 64 135 172 135 203 0 10 5 18 10 18 17 0 11 -19 -27 -94
      -56 -107 -211 -259 -320 -313 -187 -94 -363 -84 -536 31 -125 83 -290 279
      -350 417 -59 133 -61 148 -65 622 l-3 437 -290 0 -290 0 4 -447 c4 -440 4
      -450 29 -553 141 -577 549 -999 1053 -1087 208 -36 472 9 688 119 242 122 464
      376 566 648 57 153 64 199 68 485 l5 270 71 95 c171 229 614 789 1328 1681
      195 244 431 545 524 669 158 211 259 341 728 945 l187 240 0 208 0 207 -1715
      0 -1715 0 0 -1909z m2580 1364 c0 -2 -37 -51 -82 -108 -46 -57 -135 -175 -198
      -262 -176 -243 -666 -872 -1175 -1508 -132 -165 -302 -379 -378 -476 -76 -97
      -142 -180 -148 -185 -5 -6 -9 473 -9 1267 l0 1277 995 0 c547 0 995 -2 995 -5z"/>
      <path d="M4500 2130 l0 -600 -955 0 -955 0 0 -285 0 -285 1245 0 1245 0 0 885
      0 885 -290 0 -290 0 0 -600z"/>
      <style>
          path { fill: #000; }
          @media (prefers-color-scheme: dark) {
              path { fill: #FFF; }
          }
      </style>
    </g>
</svg>
